<svg id="edeHpMnog611" xmlns="http://www.w3.org/2000/svg" xmlns:xlink="http://www.w3.org/1999/xlink" viewBox="0 0 24.476493 24.476494" shape-rendering="geometricPrecision" text-rendering="geometricPrecision">
<style><![CDATA[
#edeHpMnog613_tr {animation: edeHpMnog613_tr__tr 10000ms linear infinite normal forwards}@keyframes edeHpMnog613_tr__tr { 0% {transform: translate(67.733315px,67.733286px) rotate(0deg)} 100% {transform: translate(67.733315px,67.733286px) rotate(360deg)}} #edeHpMnog618_tr {animation: edeHpMnog618_tr__tr 10000ms linear infinite normal forwards}@keyframes edeHpMnog618_tr__tr { 0% {transform: translate(67.733336px,67.733336px) rotate(0deg)} 100% {transform: translate(67.733336px,67.733336px) rotate(-360deg)}} #edeHpMnog6113_tr {animation: edeHpMnog6113_tr__tr 10000ms linear infinite normal forwards}@keyframes edeHpMnog6113_tr__tr { 0% {transform: translate(67.733337px,67.733337px) rotate(0deg)} 100% {transform: translate(67.733337px,67.733337px) rotate(360deg)}}
]]></style>
<g transform="translate(-55.4951-55.4951)"><g id="edeHpMnog613_tr" transform="translate(67.733315,67.733286) rotate(0)"><g transform="translate(-67.733314,-67.733286)"><rect width="16.9333" height="16.9333" rx="0" ry="0" transform="translate(59.2667 59.2667)" fill="none" stroke="#fff" stroke-width="0.529167" stroke-linejoin="round"/><rect width="16.9333" height="16.9333" rx="0" ry="0" transform="matrix(.707107 0.707107-.707107 0.707107 67.733313 55.759634)" fill="none" stroke="#fff" stroke-width="0.529167" stroke-linejoin="round"/><rect width="16.9333" height="16.9333" rx="0" ry="0" transform="matrix(.382683 0.92388-.92388 0.382683 72.315445 56.671137)" fill="none" stroke="#fff" stroke-width="0.529167" stroke-linejoin="round"/><rect width="16.9333" height="16.9333" rx="0" ry="0" transform="matrix(-.92388-.382683 0.382683-.92388 72.31547 78.795529)" fill="none" stroke="#fff" stroke-width="0.529167" stroke-linejoin="round"/></g></g><g id="edeHpMnog618_tr" transform="translate(67.733336,67.733336) rotate(0)"><g transform="translate(-67.733335,-67.733335)"><rect width="10.16" height="10.16" rx="0" ry="0" transform="translate(62.6533 62.6533)" fill="none" stroke="#fff" stroke-width="0.3175" stroke-linejoin="round"/><rect width="10.16" height="10.16" rx="0" ry="0" transform="matrix(.707107 0.707107-.707107 0.707107 67.733335 60.549129)" fill="none" stroke="#fff" stroke-width="0.3175" stroke-linejoin="round"/><rect width="10.16" height="10.16" rx="0" ry="0" transform="matrix(.382683 0.92388-.92388 0.382683 70.482574 61.096072)" fill="none" stroke="#fff" stroke-width="0.3175" stroke-linejoin="round"/><rect width="10.16" height="10.16" rx="0" ry="0" transform="matrix(-.92388-.382683 0.382683-.92388 70.482691 74.370632)" fill="none" stroke="#fff" stroke-width="0.3175" stroke-linejoin="round"/></g></g><g id="edeHpMnog6113_tr" transform="translate(67.733337,67.733337) rotate(0)"><g transform="translate(-67.733337,-67.733337)"><rect width="6.096" height="6.096" rx="0" ry="0" transform="translate(64.6853 64.6853)" fill="none" stroke="#fff" stroke-width="0.1905" stroke-linejoin="round"/><rect width="6.096" height="6.096" rx="0" ry="0" transform="matrix(.707107 0.707107-.707107 0.707107 67.733334 63.422812)" fill="none" stroke="#fff" stroke-width="0.1905" stroke-linejoin="round"/><rect width="6.096" height="6.096" rx="0" ry="0" transform="matrix(.382683 0.92388-.92388 0.382683 69.382861 63.751008)" fill="none" stroke="#fff" stroke-width="0.1905" stroke-linejoin="round"/><rect width="6.096" height="6.096" rx="0" ry="0" transform="matrix(-.92388-.382683 0.382683-.92388 69.382978 71.715696)" fill="none" stroke="#fff" stroke-width="0.1905" stroke-linejoin="round"/></g></g></g></svg>
